<svg width="46" height="44" viewBox="0 0 46 44" fill="none" xmlns="http://www.w3.org/2000/svg">
<g clip-path="url(#clip0_735_721)">
<path fill-rule="evenodd" clip-rule="evenodd" d="M7.41362 10.0438L20.4233 3.88196C22.128 3.0758 24.1108 3.0758 25.8155 3.88196L38.8323 10.0368C40.537 10.843 41.7709 12.3712 42.1917 14.1798L45.4085 28.0247C45.8293 29.8403 45.3871 31.74 44.2102 33.1911L35.2019 44.2951C34.025 45.7462 32.2347 46.5944 30.3446 46.5944L15.9013 46.5944C14.0112 46.5944 12.2209 45.7462 11.0441 44.2951L2.03571 33.1911C0.858845 31.733 0.41663 29.8333 0.837448 28.0247L4.05421 14.1868C4.47502 12.3712 5.70895 10.85 7.41362 10.0438ZM9.28399 11.3967L20.425 6.12513C22.1296 5.31897 24.1125 5.31897 25.8171 6.12513L36.9581 11.3967C38.6628 12.2029 39.8967 13.7311 40.3175 15.5397L43.0707 27.3867C43.4915 29.2023 43.0493 31.1021 41.8724 32.5532L34.1622 42.0518C32.9853 43.5029 31.195 44.3511 29.3049 44.3511L16.9372 44.3511C15.0471 44.3511 13.2568 43.5029 12.0799 42.0518L4.36969 32.5532C3.19283 31.0951 2.75061 29.1953 3.17143 27.3867L5.92458 15.5397C6.3454 13.7241 7.57932 12.2029 9.28399 11.3967Z" fill="white" fill-opacity="0.08"/>
<g clip-path="url(#clip1_735_721)">
<g clip-path="url(#clip2_735_721)">
<path d="M33.2013 40.0991C35.8063 40.0991 37.9181 38.0347 37.9181 35.4881C37.9181 32.9414 35.8063 30.877 33.2013 30.877C30.5962 30.877 28.4844 32.9414 28.4844 35.4881C28.4844 38.0347 30.5962 40.0991 33.2013 40.0991Z" fill="#6B6B6B"/>
<path d="M33.201 37.1625C34.147 37.1625 34.9139 36.4128 34.9139 35.488C34.9139 34.5632 34.147 33.8136 33.201 33.8136C32.2551 33.8136 31.4882 34.5632 31.4882 35.488C31.4882 36.4128 32.2551 37.1625 33.201 37.1625Z" fill="#D6E0F4"/>
<path d="M8.07631 40.099C10.6814 40.099 12.7932 38.0345 12.7932 35.4879C12.7932 32.9413 10.6814 30.8768 8.07631 30.8768C5.47125 30.8768 3.35944 32.9413 3.35944 35.4879C3.35944 38.0345 5.47125 40.099 8.07631 40.099Z" fill="#6B6B6B"/>
<path d="M8.0761 37.1623C9.02209 37.1623 9.78896 36.4126 9.78896 35.4879C9.78896 34.5631 9.02209 33.8134 8.0761 33.8134C7.13012 33.8134 6.36325 34.5631 6.36325 35.4879C6.36325 36.4126 7.13012 37.1623 8.0761 37.1623Z" fill="#D6E0F4"/>
<path d="M33.2022 28.4248C30.0988 28.4248 27.5664 30.8761 27.5664 33.9099C27.5664 34.0556 27.5664 34.2255 27.5664 34.3711C27.5912 34.7837 27.9885 35.0992 28.4105 35.0507L38.1677 33.9585C38.5153 33.9099 38.7884 33.5944 38.7387 33.2546C38.3911 30.5363 36.0325 28.4248 33.1526 28.4248H33.2022Z" fill="#10847E"/>
<path d="M2.58984 31.4594C2.58984 28.8625 3.53327 25.2462 8.59798 23.6444C13.6627 22.0183 19.3977 22.5037 20.6142 24.2997C19.9687 25.853 17.9329 27.4062 19.497 31.1924C19.5715 31.3623 19.6956 31.5322 19.8694 31.6293C20.5398 32.0419 22.4018 33.1583 24.239 33.7165C24.7355 33.8621 25.2817 33.6922 25.5796 33.2796L28.6334 29.2022C28.8072 28.9838 28.8816 28.7168 28.8816 28.4499C28.8072 26.7267 28.4596 20.2465 27.2679 18.0137H28.9065C28.9065 18.0137 30.843 19.3485 32.5064 21.6299C33.1767 22.5765 33.0774 23.8628 33.4995 25.1248C33.7477 25.8772 34.4181 25.7316 34.3684 26.1442C34.3187 26.6296 34.1201 27.0665 33.847 27.4548C31.9105 30.0274 28.6582 34.2262 27.1934 36.1435C26.6969 36.7746 25.9272 37.1629 25.1079 37.1629H15.3757C15.0282 37.1629 14.7054 37.0173 14.4571 36.7746L12.8186 35.0756L2.58984 31.4594Z" fill="#62BF9F"/>
<path d="M34.2429 24.906C33.8209 23.6683 33.1755 22.552 32.5053 21.6299C31.1648 22.1152 31.5371 25.4884 32.1081 26.1193C32.5549 26.6047 33.523 26.4348 34.3671 26.1193C34.4167 25.7068 34.3671 25.2942 34.2429 24.906Z" fill="#EFD06C"/>
<path d="M2.04406 32.2358L13.7372 36.5073C13.7372 36.5073 16.9895 35.6821 17.7839 31.7504C18.4542 28.4255 14.5317 26.4597 10.7581 27.0664C7.43136 27.6004 3.73225 29.7603 1.8951 30.9496C1.37375 31.2893 1.47306 32.0417 2.04406 32.2358Z" fill="#10847E"/>
<path d="M31.8614 17.6243C31.8117 16.6294 30.4712 15.1733 29.652 14.4453C28.5101 15.0035 27.393 15.5616 26.698 15.9256C26.3008 16.1198 26.1518 16.5808 26.3256 16.9691L26.8469 18.1339C26.971 18.3766 27.2193 18.5465 27.4923 18.5465H30.2974C30.5953 18.3523 31.8862 17.9883 31.8614 17.6243Z" fill="#10847E"/>
<path d="M26.0006 19.0802C25.6779 19.0802 25.4297 18.8376 25.4297 18.5221C25.4297 18.3279 25.529 18.1581 25.7028 18.061L28.4086 16.4351C28.6816 16.2652 29.0292 16.3623 29.1781 16.605C29.3519 16.8719 29.2526 17.2116 29.0043 17.3572L26.2985 18.9832C26.1992 19.0317 26.0999 19.056 26.0006 19.056V19.0802Z" fill="#6B6B6B"/>
<path d="M31.7872 14.227C31.4397 13.9115 30.9184 13.8387 30.4964 14.0329C30.2233 14.1785 29.9254 14.2998 29.6523 14.4454C30.4715 15.1734 30.7198 16.6295 30.7694 17.6244C30.7694 18.0127 30.5957 18.3524 30.2978 18.5466H31.6631C32.2589 18.5466 32.7553 18.0612 32.7553 17.4788C32.7553 16.4596 32.5816 14.9793 31.7624 14.227H31.7872Z" fill="#EFD06C"/>
<path d="M6.46234 24.3719H20.1913C21.5319 24.3719 22.0781 22.5516 21.1347 21.0712C20.1913 19.5908 18.1803 19.4209 15.7225 20.2703C13.2647 21.1197 10.9807 20.6586 7.82778 20.1247C4.65002 19.5908 4.1535 24.3476 6.43751 24.3476L6.46234 24.3719Z" fill="#6B6B6B"/>
<path d="M12.4454 13.499H4.50119C4.10358 13.499 3.78125 13.8141 3.78125 14.2028V21.9689C3.78125 22.3576 4.10358 22.6727 4.50119 22.6727H12.4454C12.843 22.6727 13.1654 22.3576 13.1654 21.9689V14.2028C13.1654 13.8141 12.843 13.499 12.4454 13.499Z" fill="#E69A58"/>
<path d="M6.66016 13.499V17.2605C6.66016 17.5274 6.88357 17.7701 7.18146 17.7701C7.30558 17.7701 7.45452 17.7215 7.55382 17.6245L8.22407 16.9692C8.37301 16.8236 8.59643 16.8236 8.74537 16.9692L9.41562 17.6245C9.41562 17.6245 9.63903 17.7701 9.78798 17.7701C10.061 17.7701 10.3093 17.5517 10.3093 17.2605V13.499H6.68498H6.66016Z" fill="#7C4A44"/>
<path d="M5.22185 20.2217C5.42044 20.2217 5.59421 20.3916 5.59421 20.5858V21.2895C5.59421 21.4836 5.42044 21.6535 5.22185 21.6535C5.02326 21.6535 4.84949 21.4836 4.84949 21.2895V20.5858C4.84949 20.3916 5.02326 20.2217 5.22185 20.2217Z" fill="#7C4A44"/>
<path d="M6.66142 20.2217C6.86001 20.2217 7.03378 20.3916 7.03378 20.5857V21.2894C7.03378 21.4836 6.86001 21.6534 6.66142 21.6534C6.46283 21.6534 6.28906 21.4836 6.28906 21.2894V20.5857C6.28906 20.3916 6.46283 20.2217 6.66142 20.2217Z" fill="#7C4A44"/>
</g>
</g>
<path fill-rule="evenodd" clip-rule="evenodd" d="M44.4108 9.83343C44.3416 9.66586 44.1881 9.55797 44.019 9.55797H40.4645L43.5329 3.69751C43.6089 3.55304 43.6084 3.37593 43.5318 3.23218C43.4545 3.08842 43.3131 3 43.1599 3H38.0063C37.8215 3 37.6573 3.12836 37.599 3.31869L35.0223 11.7415C34.9782 11.8834 35.0005 12.0401 35.081 12.1616C35.1619 12.2832 35.2915 12.3551 35.4295 12.3551H39.073L36.7528 18.2635C36.6696 18.4732 36.7394 18.7179 36.9173 18.8403C36.9931 18.8929 37.08 18.9149 37.166 18.9111V18.9132H37.9995V18.1052L44.3398 10.3338C44.4523 10.1968 44.48 10.0005 44.4108 9.83343Z" fill="#E0A82B"/>
<path fill-rule="evenodd" clip-rule="evenodd" d="M44.5385 9.55794H41.171L44.078 3.69758C44.1499 3.5531 44.1494 3.37599 44.0768 3.23224C44.0037 3.08842 43.8699 3 43.7248 3H38.8422C38.6671 3 38.5117 3.12855 38.4565 3.31869L36.0152 11.7415C35.9735 11.8836 35.9946 12.0401 36.0709 12.1616C36.1476 12.2832 36.2704 12.3552 36.401 12.3552H39.8528L37.6547 18.2634C37.576 18.4734 37.642 18.7179 37.8104 18.8402C37.9762 18.9617 38.1988 18.9299 38.3324 18.7566L44.8425 10.3338C44.9489 10.1968 44.9752 10.0005 44.9096 9.8334C44.8441 9.6659 44.6987 9.55794 44.5385 9.55794Z" fill="#FDC32E"/>
</g>
<defs>
<clipPath id="clip0_735_721">
<rect width="46" height="47" fill="white"/>
</clipPath>
<clipPath id="clip1_735_721">
<rect width="38" height="27.3598" fill="white" transform="translate(1.16602 13.1191)"/>
</clipPath>
<clipPath id="clip2_735_721">
<rect width="37.2402" height="26.6" fill="white" transform="translate(1.54688 13.499)"/>
</clipPath>
</defs>
</svg>
