<svg width="45" height="42" viewBox="0 0 45 42" fill="none" xmlns="http://www.w3.org/2000/svg">
<g clip-path="url(#clip0_308_5011)">
<path fill-rule="evenodd" clip-rule="evenodd" d="M7.41362 10.0438L20.4233 3.88196C22.128 3.0758 24.1108 3.0758 25.8155 3.88196L38.8323 10.0368C40.537 10.843 41.7709 12.3712 42.1917 14.1798L45.4085 28.0247C45.8293 29.8403 45.3871 31.74 44.2102 33.1911L35.2019 44.2951C34.025 45.7462 32.2347 46.5944 30.3446 46.5944L15.9013 46.5944C14.0112 46.5944 12.2209 45.7462 11.0441 44.2951L2.03571 33.1911C0.858845 31.733 0.41663 29.8333 0.837448 28.0247L4.05421 14.1868C4.47502 12.3712 5.70895 10.85 7.41362 10.0438ZM9.28399 11.3967L20.425 6.12513C22.1296 5.31897 24.1125 5.31897 25.8171 6.12513L36.9581 11.3967C38.6628 12.2029 39.8967 13.7311 40.3175 15.5397L43.0707 27.3867C43.4915 29.2023 43.0493 31.1021 41.8724 32.5532L34.1622 42.0518C32.9853 43.5029 31.195 44.3511 29.3049 44.3511L16.9372 44.3511C15.0471 44.3511 13.2568 43.5029 12.0799 42.0518L4.36969 32.5532C3.19283 31.0951 2.75061 29.1953 3.17143 27.3867L5.92458 15.5397C6.3454 13.7241 7.57932 12.2029 9.28399 11.3967Z" fill="white" fill-opacity="0.08"/>
<path d="M33.9932 25.2487C33.7678 24.6712 33.4116 20.366 32.5392 18.5386C32.2556 18.0927 31.6667 17.9612 31.2159 18.2462C31.1796 18.2682 31.1505 18.2901 31.1214 18.3193C30.8888 18.5459 30.5398 19.3207 29.9218 19.3207C29.3983 19.3207 29.3111 18.9333 29.0712 18.6775C28.8167 18.3193 28.4023 18.0927 27.9661 18.0854C27.508 18.1001 27.0791 18.312 26.7955 18.6775C26.4393 19.1307 25.894 19.4011 25.3196 19.4011C24.8398 19.4231 24.3818 19.2111 24.0837 18.8383C23.7565 18.4801 23.4802 18.0854 22.6805 18.0854C22.0189 18.0854 21.7281 18.4801 21.3573 18.8383C21.0228 19.2038 20.543 19.4084 20.0486 19.3938C19.5469 19.4084 19.0598 19.1819 18.7472 18.7871C18.4273 18.4436 18.1583 18.0781 17.5185 18.0781C16.8787 18.0781 16.6606 18.4363 16.3625 18.7798C16.0571 19.1819 15.57 19.4158 15.0684 19.3938L15.0684 21.9302L18.4491 21.9302C18.4636 21.7255 18.5509 21.5282 18.6963 21.3893C18.8562 21.2285 19.0744 21.1335 19.2997 21.1335L24.8325 21.1335C25.2833 21.1335 25.6541 21.477 25.6832 21.9302C27.2245 21.9302 28.475 23.1874 28.475 24.737C28.475 24.9709 28.4459 25.1975 28.3877 25.4241L23.6184 44.436L29.202 44.436C31.1287 44.436 32.9536 43.5516 34.1532 42.0385L36.3198 39.3121C36.1962 34.8387 35.5055 29.1373 33.9932 25.2414L33.9932 25.2487Z" fill="#ED9789"/>
<path d="M29.5736 18.0923C29.5736 18.0923 29.5082 18.1069 29.4791 18.1142C29.1883 18.2019 28.9483 18.4066 28.8029 18.677C28.563 19.0571 28.4031 19.4737 27.836 19.4737C27.1307 19.4737 26.8763 19.0498 26.5273 18.677C26.2074 18.2823 25.7203 18.063 25.2186 18.085C24.5352 18.085 24.208 18.465 23.8154 18.8305C23.4374 19.2398 22.9066 19.4737 22.3468 19.4737C21.8452 19.503 21.3653 19.2618 21.089 18.8378C20.7982 18.4724 20.5438 18.085 19.7367 18.085C19.1042 18.085 18.7989 18.4431 18.4717 18.794C18.1663 19.2179 17.6792 19.4664 17.163 19.4737C16.5741 19.4737 16.3487 19.1302 16.087 18.7867C15.8689 18.4285 15.5054 18.18 15.0909 18.0996C14.6547 18.0484 14.2548 18.3189 14.124 18.7428C13.8259 19.8173 13.6369 21.8566 13.4696 23.2674C13.3824 23.991 13.1716 24.6854 12.8371 25.3286C10.3797 30.1163 9.65995 35.4595 9.5 39.3481L11.6448 42.0526C12.8444 43.5657 14.6693 44.4501 16.5959 44.4501L27.7778 44.4501C28.0105 44.2382 28.1631 43.9385 28.1631 43.5949C28.1631 43.573 28.1631 43.5511 28.1631 43.5292C27.9668 40.2618 27.6688 31.1323 30.0534 25.3213C30.2861 24.7658 30.4388 24.1737 30.5115 23.5743C30.6423 22.266 30.9695 20.0293 30.8314 18.9402C30.7151 18.3554 30.1552 17.9826 29.5736 18.0996L29.5736 18.0923ZM24.8406 22.6022C24.6806 22.763 24.4625 22.858 24.2371 22.858L19.6858 22.858C19.2133 22.858 18.8352 22.4706 18.8352 22.0028C18.8352 21.9809 18.8352 21.959 18.8352 21.937C18.8497 21.7324 18.937 21.535 19.0824 21.3961C19.2423 21.2353 19.4605 21.1403 19.6858 21.1403L24.2371 21.1403C24.6879 21.1403 25.0587 21.4838 25.0878 21.937C25.0878 21.959 25.0878 21.9809 25.0878 22.0028C25.0878 22.2294 25.0005 22.4487 24.8406 22.6095L24.8406 22.6022Z" fill="#FCC3B4"/>
<path d="M28.8258 24.9123L14.4231 24.9123C14.1904 24.9123 13.9941 24.7223 13.9941 24.4811C13.9941 24.2399 14.1832 24.0498 14.4231 24.0498L28.8258 24.0498C29.0584 24.0498 29.2547 24.2399 29.2547 24.4811C29.2547 24.7223 29.0657 24.9123 28.8258 24.9123Z" fill="#ED9789"/>
<path d="M20.6965 38.6465C22.9212 37.7401 23.9972 35.2038 23.0957 32.9744C22.2014 30.745 19.6713 29.6705 17.4466 30.5696C15.2218 31.4759 14.1458 34.0123 15.0474 36.2417C15.9416 38.4711 18.4717 39.5456 20.6965 38.6465Z" fill="#ED9789"/>
<path d="M19.0754 34.656C19.01 34.5903 18.9228 34.5537 18.8283 34.5537C18.7337 34.5537 18.6465 34.5903 18.5811 34.656C18.2902 34.9265 18.0067 35.2116 17.7232 35.4893C17.6795 35.5259 17.6504 35.577 17.6359 35.6282C17.6214 35.6794 17.6214 35.7378 17.6359 35.789C17.6504 35.8548 17.6795 35.9133 17.7232 35.9644C17.7668 36.0156 17.8249 36.0521 17.8904 36.0668C17.9558 36.0887 18.0212 36.0887 18.0867 36.0668C18.1521 36.0521 18.2103 36.0156 18.2539 35.9717C18.4284 35.8109 18.6029 35.6428 18.7701 35.4747C18.821 35.4235 18.8573 35.4089 18.9155 35.4747C19.1772 35.7378 19.439 35.9937 19.7152 36.2422C19.7734 36.3007 19.7661 36.3299 19.7152 36.3811C19.5408 36.5419 19.3663 36.71 19.199 36.8781C19.1482 36.9293 19.1118 36.9878 19.0973 37.0609C19.0827 37.1339 19.0973 37.207 19.1263 37.2655C19.1482 37.3313 19.1918 37.3825 19.2427 37.419C19.2936 37.4556 19.359 37.4775 19.4244 37.4848C19.548 37.4848 19.6353 37.4556 19.708 37.3898C19.9988 37.112 20.2823 36.8416 20.5659 36.5565C20.595 36.5273 20.624 36.4907 20.6386 36.4469C20.6531 36.403 20.6677 36.3665 20.6677 36.3153C20.6677 36.2641 20.6604 36.2276 20.6386 36.1837C20.624 36.1399 20.595 36.1106 20.5659 36.0741C20.0715 35.5843 19.5771 35.1092 19.0827 34.6341L19.0754 34.656Z" fill="#FFE1D2"/>
<path d="M21.5475 35.0939C21.453 35.0062 21.3585 34.9039 21.264 34.8161C21.1986 34.7577 21.184 34.7138 21.2422 34.6334C21.4457 34.3337 21.5548 33.9829 21.5475 33.6247C21.5475 33.4712 21.5257 33.3177 21.4894 33.1642C21.1186 31.7389 19.3082 31.2199 18.2104 32.2286C17.876 32.5429 17.5488 32.8645 17.2144 33.1861C16.909 33.4858 16.5964 33.7855 16.291 34.0852C16.2401 34.1291 16.2038 34.1875 16.1892 34.2606C16.1747 34.3264 16.1747 34.3995 16.2038 34.4653C16.2256 34.5311 16.2692 34.5895 16.3201 34.6334C16.3783 34.6773 16.4437 34.6992 16.5091 34.7065C16.5673 34.7065 16.6327 34.7065 16.6909 34.6846C16.7491 34.6626 16.8 34.6261 16.8363 34.5822C17.4397 33.9975 18.0505 33.4127 18.6539 32.8207C18.792 32.6818 18.9665 32.5721 19.1556 32.5064C19.3446 32.4406 19.5409 32.4186 19.7445 32.4479C20.3988 32.521 20.8932 33.1423 20.7987 33.7782C20.7623 34.056 20.6315 34.3118 20.4279 34.5018C20.2752 34.6553 20.2534 34.8527 20.3915 34.9989C20.6024 35.2255 20.8278 35.4374 21.0531 35.6421C21.1258 35.7006 21.2204 35.7371 21.3149 35.7298C21.4094 35.7298 21.4966 35.686 21.5621 35.6129C21.5912 35.5763 21.6202 35.5398 21.6348 35.4959C21.6493 35.4521 21.6566 35.4082 21.6566 35.357C21.6566 35.3132 21.642 35.262 21.6275 35.2255C21.6057 35.1816 21.5839 35.1451 21.5475 35.1158L21.5475 35.0939Z" fill="#FFE1D2"/>
<path d="M32.9347 0.616211L13.5897 0.616211C12.1476 0.616211 10.9785 1.79158 10.9785 3.24147L10.9785 15.9348C10.9785 17.3847 12.1476 18.56 13.5897 18.56L32.9347 18.56C34.3769 18.56 35.546 17.3847 35.546 15.9348L35.546 3.24147C35.546 1.79158 34.3769 0.616211 32.9347 0.616211Z" fill="#36BF99"/>
<path d="M18.075 7.44068C18.2664 7.31011 18.5261 7.35822 18.656 7.55064L19.2575 8.43718C19.7702 6.36172 21.6432 4.81543 23.8716 4.81543C25.102 4.81543 26.2299 5.28275 27.0707 6.05933C28.0277 6.939 28.6293 8.18978 28.6293 9.58487C28.6293 10.98 28.0277 12.2376 27.0707 13.1104C26.2231 13.8801 25.102 14.3543 23.8716 14.3543C22.6412 14.3543 21.5407 13.9145 20.6657 13.1104C20.4948 12.9523 20.4811 12.6843 20.6383 12.5194C20.7956 12.3476 21.0622 12.3338 21.2262 12.4919C21.9508 13.1516 22.8941 13.5228 23.8716 13.5228C25.1909 13.5228 26.3598 12.8699 27.0707 11.8596C27.5219 11.2205 27.7885 10.437 27.7885 9.59174C27.7885 8.74644 27.5219 7.96986 27.0707 7.32385C26.3598 6.32048 25.1909 5.66073 23.8716 5.66073C22.0055 5.66073 20.4401 6.98023 20.0436 8.7327L21.0963 8.01797C21.2877 7.88739 21.5475 7.9355 21.6774 8.12792C21.8072 8.32035 21.7594 8.5815 21.5612 8.71208L19.7634 9.93536C19.7634 9.93536 19.736 9.94911 19.7155 9.95598C19.7019 9.96285 19.6882 9.96973 19.6745 9.9766C19.6267 9.99034 19.5788 10.0041 19.531 10.0041C19.4831 10.0041 19.4353 9.99034 19.3874 9.9766C19.3737 9.9766 19.3669 9.9766 19.3601 9.96973C19.3191 9.94911 19.278 9.92162 19.2439 9.88726C19.237 9.88726 19.2302 9.87351 19.2234 9.86664C19.2097 9.8529 19.196 9.83915 19.1823 9.81853L17.9588 8.01797C17.822 7.83241 17.8767 7.57126 18.0681 7.44068L18.075 7.44068Z" fill="white" stroke="white" stroke-width="0.458729" stroke-miterlimit="10"/>
<path d="M24.0339 20.8754L29.0445 17.4805L17.4785 17.4805L22.4891 20.8754C22.9539 21.1916 23.5691 21.1916 24.0339 20.8754Z" fill="#36BF99"/>
</g>
<defs>
<clipPath id="clip0_308_5011">
<rect width="46" height="47" fill="white"/>
</clipPath>
</defs>
</svg>
