<svg width="53" height="54" viewBox="0 0 53 54" fill="none" xmlns="http://www.w3.org/2000/svg">
<path fill-rule="evenodd" clip-rule="evenodd" d="M9.0233 11.9677L24.5242 4.62585C26.5553 3.66532 28.9178 3.66532 30.9489 4.62585L46.4583 11.9593C48.4894 12.9198 49.9596 14.7407 50.461 16.8956L54.2938 33.3917C54.7952 35.5549 54.2683 37.8185 52.866 39.5474L42.1327 52.7777C40.7305 54.5066 38.5974 55.5173 36.3453 55.5173L19.1363 55.5173C16.8842 55.5173 14.7512 54.5066 13.3489 52.7777L2.61559 39.5474C1.21337 37.8101 0.68647 35.5466 1.18787 33.3917L5.0206 16.9039C5.522 14.7407 6.99221 12.9282 9.0233 11.9677ZM11.2502 13.5797L24.5246 7.29871C26.5557 6.33818 28.9182 6.33818 30.9493 7.29871L44.2236 13.5797C46.2547 14.5403 47.7249 16.3611 48.2263 18.516L51.5067 32.6317C52.0081 34.795 51.4812 37.0585 50.079 38.7874L40.8923 50.105C39.4901 51.8339 37.357 52.8446 35.1049 52.8446L20.3689 52.8446C18.1168 52.8446 15.9838 51.8339 14.5815 50.105L5.39488 38.7874C3.99266 37.0501 3.46577 34.7866 3.96717 32.6317L7.24751 18.516C7.74891 16.3528 9.21912 14.5403 11.2502 13.5797Z" fill="white" fill-opacity="0.08"/>
<path d="M5.36232 35.0699C5.12437 35.0699 4.91191 34.9363 4.80993 34.7358L4.07908 33.2992L2.61737 32.5809C2.40491 32.4807 2.27744 32.2719 2.27744 32.038C2.27744 31.8041 2.41341 31.5953 2.61737 31.4951L4.07908 30.7768L4.80993 29.3402C5.02239 28.9309 5.70225 28.9309 5.91471 29.3402L6.64556 30.7768L8.10727 31.4951C8.31973 31.5953 8.4472 31.8041 8.4472 32.038C8.4472 32.2719 8.31123 32.4807 8.10727 32.5809L6.64556 33.2992L5.91471 34.7358C5.81273 34.9446 5.60027 35.0699 5.36232 35.0699Z" fill="#FAC149"/>
<path d="M45.4756 29.0065C45.2376 29.0065 45.0252 28.8728 44.9232 28.6724L44.1924 27.2357L42.7306 26.5174C42.5182 26.4172 42.3907 26.2084 42.3907 25.9745C42.3907 25.7406 42.5267 25.5318 42.7306 25.4316L44.1924 24.7133L44.9232 23.2767C45.1357 22.8674 45.8155 22.8674 46.028 23.2767L46.7588 24.7133L48.2206 25.4316C48.433 25.5318 48.5605 25.7406 48.5605 25.9745C48.5605 26.2084 48.4245 26.4172 48.2206 26.5174L46.7588 27.2357L46.028 28.6724C45.926 28.8812 45.7136 29.0065 45.4756 29.0065Z" fill="#FAC149"/>
<path d="M39.0065 42.3613L25.9786 47.2225L28.0267 52.8436L35.1058 52.8436C37.3578 52.8436 39.4909 51.833 40.8931 50.104L41.9384 48.8094L39.0065 42.3613Z" fill="#FCC3B4"/>
<path d="M39.3884 26.8428C41.0541 31.186 41.19 39.1042 40.8756 40.5825C40.2722 43.4057 38.1391 45.8696 35.3942 46.9137C35.3942 46.9137 31.128 47.4315 29.2159 48.5925C27.3038 49.7535 24.7288 49.5865 22.7657 48.509C20.8026 47.4315 19.3919 45.5272 18.6015 43.4474L17.5138 39.4633L39.3884 26.8428Z" fill="#FCC3B4"/>
<path d="M35.2691 27.4531L36.3994 41.8026C36.4504 42.4291 35.9405 42.972 35.3031 42.972L14.0743 42.972C13.369 42.972 12.8506 42.3372 12.9951 41.6606L15.5785 29.8753L35.2606 27.4531L35.2691 27.4531Z" fill="#1A6D56"/>
<path d="M13.7769 14.8073C13.7514 15.1163 12.7061 27.9206 12.7061 27.9206L11.1849 38.9459C11.0319 39.7895 11.6778 40.5662 12.5531 40.5829L33.2125 41.1509C33.9774 41.176 34.6232 40.5913 34.6742 39.8396L36.0509 18.9752L13.7854 14.799L13.7769 14.8073Z" fill="#299879"/>
<path d="M16.1902 28.9056L18.1703 3.05474C18.2298 2.55359 18.6632 2.17773 19.1731 2.17773L40.9373 2.17773C41.1327 2.17773 41.3197 2.22785 41.4727 2.32808C41.8636 2.5703 42.0166 3.05474 41.8636 3.48072L33.2973 28.3459C33.2973 28.3459 25.7848 38.7197 16.1817 28.9139L16.1902 28.9056Z" fill="#1A6D56"/>
<path d="M25.1895 34.8949C28.9798 34.8949 32.4726 33.5919 35.209 31.4203L38.0474 1.57703C38.0984 0.992357 37.6395 0.491211 37.0446 0.491211L16.4108 0.491211C15.9009 0.491211 15.4675 0.875423 15.408 1.36822L12.1446 28.2714C15.0425 32.2806 19.8016 34.8949 25.181 34.8949L25.1895 34.8949Z" fill="#299879"/>
<path d="M34.1549 2.83035C34.1549 2.6466 34.1889 2.47955 34.2399 2.3125L19.0449 2.3125C19.1044 2.47955 19.1299 2.6466 19.1299 2.83035C19.1299 3.70736 18.4075 4.41732 17.5152 4.41732C17.2178 4.41732 16.9458 4.33379 16.6994 4.20015L12.7052 38.5705L32.5827 39.1301L36.05 4.39226C35.9565 4.40896 35.8715 4.41732 35.7781 4.41732C34.8857 4.41732 34.1634 3.70736 34.1634 2.83035L34.1549 2.83035Z" fill="#31CDA2"/>
<path d="M24.841 28.3458C29.7269 28.3458 33.6877 24.453 33.6877 19.6509C33.6877 14.8489 29.7269 10.9561 24.841 10.9561C19.955 10.9561 15.9942 14.8489 15.9942 19.6509C15.9942 24.453 19.955 28.3458 24.841 28.3458Z" fill="#36BF99"/>
<path d="M39.9171 28.605C39.4157 26.7675 38.8208 25.239 38.6253 24.362C38.3364 23.0507 37.1041 23.0507 37.1041 23.0507L29.4981 21.6475C30.11 26.8844 35.107 26.6923 35.107 26.6923L35.7189 33.1404C37.2826 31.9711 38.8803 30.2421 39.9171 28.5967L39.9171 28.605Z" fill="#FCC3B4"/>
<path d="M28.767 18.6993C28.75 18.9248 28.665 19 28.427 18.9916C28.0276 18.9665 27.6367 18.9415 27.2373 18.9081C27.1608 18.9081 27.1268 18.9164 27.1013 19C26.9908 19.4176 26.8124 19.8101 26.5404 20.1442C26.2855 20.4616 25.971 20.7206 25.6226 20.921C25.0617 21.2301 24.4498 21.3804 23.8125 21.4222C23.7785 21.4222 23.753 21.4222 23.719 21.4305C23.7105 21.4305 23.6935 21.4305 23.6765 21.4472C23.7105 21.489 23.736 21.5307 23.77 21.5725C24.1864 22.0987 24.6113 22.6333 25.0362 23.1678C25.4016 23.6356 25.7586 24.12 26.1155 24.5961C26.4469 25.0388 26.7699 25.4815 27.0928 25.9241C27.2118 26.0912 27.1693 26.2332 26.9823 26.3334C26.9738 26.3334 26.9653 26.3418 26.9568 26.3501L25.2232 26.2415C25.0957 26.0995 24.9597 25.9575 24.8493 25.8072C24.5178 25.3729 24.2034 24.9385 23.8805 24.5209C23.5575 24.0949 23.2346 23.669 22.9031 23.2597C22.5717 22.8337 22.2318 22.4161 21.8918 21.9901C21.7219 21.7813 21.5519 21.5725 21.3735 21.3553C21.314 21.2885 21.297 21.2134 21.297 21.1215L21.3565 20.1776C21.365 19.9855 21.4839 19.8937 21.6794 19.9104C22.0193 19.9271 22.3508 19.9521 22.6907 19.9688C23.1581 19.9939 23.6255 19.9605 24.0759 19.8101C24.5348 19.6598 24.9087 19.3925 25.1212 18.9498C25.1467 18.8997 25.1637 18.8496 25.1892 18.7911C25.1382 18.7911 25.1042 18.7828 25.0702 18.7828L21.7389 18.574C21.5519 18.5489 21.4754 18.457 21.4839 18.2649L21.5349 17.5299C21.5519 17.3211 21.6454 17.2376 21.8664 17.2459L25.1552 17.4548C25.1127 17.3211 25.0447 17.2209 24.9682 17.129C24.7218 16.8367 24.3903 16.6863 24.0334 16.5777C23.6935 16.4775 23.3451 16.4358 22.9966 16.4107C22.6482 16.3856 22.2998 16.3689 21.9513 16.3439C21.7134 16.3272 21.6284 16.2269 21.6369 16.0014L21.6964 15.0576C21.7134 14.8321 21.8069 14.7569 22.0363 14.7653L28.665 15.1829C28.8944 15.1996 28.9794 15.2831 28.9624 15.517L28.9199 16.2186C28.9029 16.4441 28.818 16.5193 28.5885 16.5026L26.7614 16.3856C26.7784 16.4274 26.7869 16.4525 26.8039 16.4692C26.9993 16.7782 27.1183 17.1207 27.1778 17.4798C27.1863 17.5466 27.2203 17.5717 27.2883 17.5717C27.6962 17.5884 28.1126 17.6218 28.5205 17.6469C28.7585 17.6636 28.835 17.7471 28.818 17.981L28.7755 18.6742L28.767 18.6993Z" fill="#E4FFF7"/>
<path d="M30.8565 43.7232C30.3381 41.4263 30.4571 38.9957 31.4174 36.8408C32.3777 34.6859 34.1624 32.7565 35.5561 30.8437L37.5872 33.8506L37.4002 42.9214L34.6383 44.7005L30.8565 43.7232Z" fill="#FCC3B4"/>
<path d="M35.301 30.7101C34.1963 32.2136 32.9555 33.6251 31.9697 35.2037C31.4683 36.0056 31.0519 36.8492 30.7629 37.7512C30.474 38.6533 30.3125 39.6138 30.2785 40.566C30.2361 41.6518 30.3465 42.7376 30.5845 43.7984C30.6185 43.9487 30.7884 44.0323 30.9329 43.9905C31.0859 43.9487 31.1624 43.79 31.1284 43.648C30.729 41.8523 30.7205 39.9563 31.2304 38.1772C31.7403 36.3981 32.8025 34.8863 33.9158 33.433C34.5447 32.6145 35.1906 31.821 35.8024 30.9857C35.8959 30.8605 35.8279 30.6767 35.7005 30.6015C35.556 30.518 35.403 30.5765 35.3095 30.7018L35.301 30.7101Z" fill="#ED9789"/>
<path d="M12.4346 19.6094L20.6525 19.6094C21.8508 19.6094 22.8196 20.5616 22.8196 21.7392C22.8196 22.9169 21.8508 23.8691 20.6525 23.8691L12.4346 23.8691C11.4234 23.8691 10.6075 23.0673 10.6075 22.0733L10.6075 21.4052C10.6075 20.4112 11.4234 19.6094 12.4346 19.6094Z" fill="#FCC3B4"/>
<path d="M11.7185 23.8613L21.1006 23.8613C22.2989 23.8613 23.2677 24.8135 23.2677 25.9912C23.2677 27.1689 22.2989 28.1211 21.1006 28.1211L11.7185 28.1211C10.8007 28.1211 10.0528 27.3861 10.0528 26.484L10.0528 25.4984C10.0528 24.5963 10.8007 23.8613 11.7185 23.8613Z" fill="#FCC3B4"/>
<path d="M12.262 28.1214L19.3326 28.1214C20.4203 28.1214 21.2957 28.99 21.2957 30.0508C21.2957 31.1199 20.4118 31.9802 19.3326 31.9802L12.262 31.9802C11.3696 31.9802 10.6388 31.2703 10.6388 30.3849L10.6388 29.7084C10.6388 28.8313 11.3611 28.113 12.262 28.113L12.262 28.1214Z" fill="#FCC3B4"/>
<path d="M17.6095 31.9375L12.706 31.9375C12.0771 31.9375 11.5332 32.3134 11.2953 32.8479C10.8704 34.2762 11.5672 34.9945 13.0204 35.2117L17.601 35.2117C18.5188 35.2117 19.2667 34.4766 19.2667 33.5746C19.2667 32.6725 18.5188 31.9375 17.601 31.9375L17.6095 31.9375Z" fill="#FCC3B4"/>
<path d="M11.3628 24.1788L21.0423 24.1788C21.2208 24.1788 21.3738 24.0285 21.3738 23.8531C21.3738 23.6777 21.2208 23.5273 21.0423 23.5273L11.3628 23.5273C11.1843 23.5273 11.0313 23.6777 11.0313 23.8531C11.0313 24.0285 11.1843 24.1788 11.3628 24.1788Z" fill="#ED9789"/>
<path d="M11.3979 28.5548L19.2249 28.5548C19.4033 28.5548 19.5563 28.4045 19.5563 28.2291C19.5563 28.0537 19.4033 27.9033 19.2249 27.9033L11.3979 27.9033C11.2195 27.9033 11.0665 28.0537 11.0665 28.2291C11.0665 28.4045 11.2195 28.5548 11.3979 28.5548Z" fill="#ED9789"/>
<path d="M12.1421 31.879L18.3373 31.879C18.5158 31.879 18.6688 31.7287 18.6688 31.5533C18.6688 31.3779 18.5158 31.2275 18.3373 31.2275L12.1421 31.2275C11.9636 31.2275 11.8106 31.3779 11.8106 31.5533C11.8106 31.7287 11.9636 31.879 12.1421 31.879Z" fill="#ED9789"/>
<path d="M23.7606 49.1016C25.7746 49.8701 28.0182 50.0204 30.1343 49.5694C30.7292 49.4441 31.307 49.2687 31.8679 49.0432C32.0124 48.9847 32.1144 48.8594 32.0634 48.7007C32.0294 48.5671 31.8594 48.4501 31.715 48.5086C29.7943 49.2687 27.6443 49.4691 25.6132 49.0599C25.0353 48.9429 24.4659 48.7759 23.9135 48.5671C23.769 48.5086 23.5991 48.6255 23.5651 48.7592C23.5226 48.9179 23.6161 49.0515 23.7606 49.1016Z" fill="#ED9789"/>
<path d="M36.1365 47.1224C37.7427 46.379 39.0939 45.0844 39.9097 43.5309C40.1477 43.0882 40.3347 42.6204 40.4876 42.136C40.5981 41.7936 40.0457 41.6432 39.9352 41.9857C39.4593 43.5476 38.431 44.9591 37.0798 45.9197C36.6889 46.1953 36.2725 46.4375 35.8391 46.638C35.7031 46.7048 35.6606 46.8969 35.7371 47.0222C35.8221 47.1642 35.9835 47.1892 36.128 47.1224L36.1365 47.1224Z" fill="#ED9789"/>
<path d="M34.8684 26.8345L35.1828 30.1672L35.2253 30.6349C35.2423 30.8103 35.3698 30.9606 35.5568 30.9606C35.7267 30.9606 35.9052 30.8103 35.8882 30.6349L35.5738 27.3023L35.5313 26.8345C35.5143 26.6591 35.3868 26.5088 35.1998 26.5088C35.0299 26.5088 34.8514 26.6591 34.8684 26.8345Z" fill="#ED9789"/>
</svg>
