<svg xmlns="http://www.w3.org/2000/svg" xmlns:xlink="http://www.w3.org/1999/xlink" width="28" height="28" viewBox="0 0 28 28">
    <defs>
        <path id="a" d="M0 0h28V27.7H0z"/>
    </defs>
    <g fill="none" fill-rule="evenodd">
        <g transform="translate(0 .3)">
            <mask id="b" fill="#fff">
                <use xlink:href="#a"/>
            </mask>
            <path fill="#F3F6FA" d="M28 13.85c0 7.649-6.268 13.849-14 13.849s-14-6.2-14-13.85C0 6.202 6.268.002 14 .002S28 6.2 28 13.85" mask="url(#b)"/>
        </g>
        <path fill="#3EC19D" d="M17.293 26.129H7.501c-1.277 0-2.313-1.025-2.313-2.288V9.549c0-1.263 1.036-2.287 2.313-2.287h9.792c1.277 0 2.313 1.024 2.313 2.287v14.292c0 1.263-1.036 2.288-2.313 2.288"/>
        <path fill="#3BB896" d="M8.748 24.22V9.099c0-1.003-.07-1.837 1.208-1.837H7.5c-1.277 0-2.313 1.024-2.313 2.287v14.292c0 1.263 1.036 2.288 2.313 2.288h2.563c-1.277 0-1.316-.646-1.316-1.91"/>
        <path fill="#3CCEA5" d="M15.898 10.912H8.896a2.058 2.058 0 0 0-2.069 2.046v7.35c0 1.131.926 2.047 2.07 2.047h7a2.058 2.058 0 0 0 2.07-2.046v-7.35c0-1.131-.927-2.047-2.07-2.047"/>
        <path fill="#FFF" d="M12.397 13.025c2.019 0 3.655 1.618 3.655 3.615 0 1.998-1.636 3.616-3.655 3.616s-3.655-1.618-3.655-3.616c0-1.997 1.636-3.615 3.655-3.615"/>
        <path fill="#3EC19D" d="M14.33 15.942h-1.08a.144.144 0 0 1-.145-.143v-1.07a.144.144 0 0 0-.145-.143h-1.122a.144.144 0 0 0-.145.143v1.07c0 .079-.064.143-.144.143h-1.081a.144.144 0 0 0-.145.143v1.11c0 .08.065.143.145.143h1.08c.08 0 .145.064.145.143v1.07c0 .08.065.143.145.143h1.122c.08 0 .145-.064.145-.143v-1.07c0-.079.065-.143.145-.143h1.08c.08 0 .146-.064.146-.143v-1.11a.144.144 0 0 0-.145-.143"/>
        <path fill="#FF7D7B" d="M16.163 2.972h1.326c.303 0 .548.243.548.543v2.29c0 .3-.245.542-.548.542h-1.326V2.972zM8.35 6.347h5.92V2.972H8.35z"/>
        <path fill="#F76B6D" d="M8.63 2.972H7.306a.545.545 0 0 0-.548.543v2.29c0 .3.245.542.548.542H8.63V2.972zM10.523 6.347h1.874V2.972h-1.874zM14.27 6.347h1.893V2.972h-1.892z"/>
        <path fill="#DFEFF7" d="M20.55 26.128h5.643c.998 0 1.806-.8 1.806-1.787 0-.986-.808-1.786-1.806-1.786H20.55c-.998 0-1.807.8-1.807 1.786 0 .987.81 1.787 1.807 1.787"/>
        <path fill="#BCDFEF" d="M20.55 24.342h5.643c.668 0 1.25-.36 1.563-.894.154.263.243.568.243.894 0 .986-.808 1.787-1.806 1.787H20.55c-.998 0-1.807-.8-1.807-1.787 0-.326.09-.63.244-.894.312.534.895.894 1.563.894"/>
        <path fill="#00C9ED" d="M23.371 22.555h2.795c1.012 0 1.833.8 1.833 1.787 0 .986-.82 1.786-1.833 1.786h-2.795v-3.573z"/>
        <path fill="#00B9E1" d="M26.193 24.342c.667 0 1.248-.359 1.56-.89.697 1.177-.17 2.677-1.587 2.677h-2.795v-1.787h2.822z"/>
        <path fill="#DFEFF7" d="M14.289 23.06l3.854-3.977a1.805 1.805 0 0 1 2.556-.046c.714.694.727 1.842.029 2.562l-3.854 3.977a1.805 1.805 0 0 1-2.556.047 1.815 1.815 0 0 1-.029-2.563"/>
        <path fill="#BCDFEF" d="M15.604 24.227l3.854-3.977c.442-.455.598-1.08.474-1.655.28.078.544.225.767.442.714.695.727 1.842.028 2.562l-3.854 3.977c-.697.72-1.842.741-2.555.047a1.788 1.788 0 0 1-.503-.907 1.813 1.813 0 0 0 1.79-.489"/>
        <path fill="#00C9ED" d="M18.8 23.588l1.928-1.989a1.815 1.815 0 0 0-.029-2.562 1.805 1.805 0 0 0-2.556.047l-1.927 1.988 2.585 2.516z"/>
        <path fill="#00B9E1" d="M20.728 21.6L18.8 23.587l-1.326-1.29 1.983-2.047c.441-.456.598-1.081.474-1.656.293.082.56.24.767.442.714.695.727 1.842.029 2.562"/>
    </g>
</svg>
